<?xml version="1.0"?>
<svg xmlns="http://www.w3.org/2000/svg" xmlns:xlink="http://www.w3.org/1999/xlink" xmlns:svgjs="http://svgjs.com/svgjs" version="1.1" width="512" height="512" x="0" y="0" viewBox="0 0 512 512" style="enable-background:new 0 0 512 512" xml:space="preserve" class=""><g>
<path xmlns="http://www.w3.org/2000/svg" style="" d="M329.979,86.237c15.83-19.133,26.956-45.12,26.398-71.589c-0.094-4.445-4.149-7.745-8.544-7.074  c-23.226,3.548-49.189,18.094-65.26,36.91c-14.812,17.126-27.958,43.742-26.969,70.113c0.149,3.974,3.506,7.141,7.481,7.028  C288.72,120.9,314.028,105.549,329.979,86.237" fill="#efeff5" data-original="#d6d6d8" class=""/>
<path xmlns="http://www.w3.org/2000/svg" style="" d="M275.605,114.597c-1.532-40.887,29.315-88.643,79.386-104.039c-1.572-2.161-4.288-3.422-7.158-2.983  c-23.226,3.548-49.189,18.094-65.26,36.91c-14.812,17.126-27.958,43.742-26.97,70.113c0.149,3.974,3.506,7.141,7.481,7.028  c4.97-0.141,9.929-0.837,14.809-2C276.549,118.352,275.679,116.575,275.605,114.597z" fill="#d5d5dc" data-original="#c2c2c4" class=""/>
<path xmlns="http://www.w3.org/2000/svg" style="" d="M453.707,369.27c-73.929-37.22-83.873-138.049-13.514-188.656c3.401-2.447,4.149-7.236,1.563-10.533  c-11.906-15.177-25.827-24.913-39.198-31.223c0.008-0.001,0.018-0.003,0.025-0.004c-1-0.473-4.233-1.935-7.07-3.051l0,0  c-67.289-26.488-109.695,14.113-135.382,14.113c-19.667,0-50.016-22.222-82.172-21.615c-42.254,0.613-81.173,24.58-102.962,62.398  c-33.429,58.023-22.404,137.34,3.64,199.157c0,0.001,0,0.001-0.001,0.002c0.673,1.595,1.732,4.05,2.614,6.029  c0.001-0.001,0.001-0.003,0.002-0.004c7.545,16.945,16.183,32.429,25.284,45.592c20.896,30.203,45.825,64.229,78.579,62.979  c31.525-1.25,43.444-20.383,81.541-20.383c38.073,0,48.813,20.383,82.148,19.776c33.933-0.644,55.42-30.823,76.174-61.17  c18.266-26.665,28.343-52.692,32.38-64.409C458.56,374.773,457.008,370.932,453.707,369.27z" fill="#efeff5" data-original="#d6d6d8" class=""/>
<path xmlns="http://www.w3.org/2000/svg" style="" d="M126.535,441.474c-9.101-13.163-17.738-28.648-25.284-45.592c-0.001,0.001-0.001,0.003-0.002,0.004  c-0.845-1.898-1.991-4.553-2.614-6.029c0,0,0.001-0.001,0.001-0.002c-26.001-61.71-37.087-141.105-3.64-199.157  c20.123-34.926,54.859-58.022,93.337-61.836c-3.43-0.413-6.891-0.628-10.376-0.563c-42.254,0.613-81.173,24.58-102.962,62.398  c-33.429,58.023-22.404,137.34,3.64,199.157c0,0.001,0,0.001-0.001,0.002c0.673,1.595,1.732,4.05,2.614,6.029  c0.001-0.001,0.001-0.003,0.002-0.004c7.545,16.945,16.183,32.429,25.284,45.592c20.896,30.203,45.825,64.229,78.579,62.979  c3.222-0.128,6.231-0.45,9.094-0.912C166.728,497.966,145.047,468.23,126.535,441.474z" fill="#d5d5dc" data-original="#c2c2c4" class=""/>
<path xmlns="http://www.w3.org/2000/svg" d="M183.412,512c-37.217,0.004-64.73-39.769-83.046-66.244c-44.513-64.38-77.133-180.226-31.87-258.788  c19.954-34.633,53.106-58.132,90.956-64.472c4.088-0.687,7.952,2.073,8.637,6.158c0.684,4.085-2.073,7.952-6.158,8.637  c-33.41,5.596-62.728,26.433-80.435,57.165c-42.347,73.499-9.816,183.426,31.209,242.766c22.201,32.089,44.423,60.809,72.124,59.749  c29.429-1.166,42.075-20.388,81.827-20.388c39.745,0,50.963,20.291,82.011,19.777c30.92-0.586,51.745-31.038,70.12-57.904  c17.289-25.24,27.113-49.968,31.447-62.524c-16.086-8.12-54.19-32.428-63.188-83.613c-0.717-4.08,2.009-7.968,6.088-8.686  c4.085-0.714,7.969,2.009,8.687,6.088c7.84,44.601,41.258,65.813,55.26,72.862c6.616,3.331,9.784,11.13,7.367,18.14  c-4.563,13.242-14.957,39.45-33.283,66.204c-19.406,28.377-43.564,63.697-82.22,64.43c-35.497,0.664-46.127-19.774-82.29-19.774  C229.566,491.586,216.965,512,183.412,512z" fill="#0feb63" data-original="#000000" style="" class=""/>
<path xmlns="http://www.w3.org/2000/svg" d="M262.878,129.145c-7.887,0-14.472-6.308-14.771-14.251C246.255,65.422,288.408,9.079,346.7,0.175  c8.887-1.36,16.987,5.381,17.175,14.331c1.191,56.414-46.03,113.09-100.577,114.633  C263.158,129.143,263.018,129.145,262.878,129.145z M348.881,15.006c-21.521,3.319-45.876,17.12-60.605,34.365  c-12.777,14.773-26.06,39.499-25.186,64.767C309.703,112.647,349.781,62.719,348.881,15.006z" fill="#0feb63" data-original="#000000" style="" class=""/>
<path xmlns="http://www.w3.org/2000/svg" d="M393.588,263.522c-0.325,0-0.654-0.021-0.985-0.064c-4.106-0.539-6.999-4.305-6.461-8.413  c5.842-44.548,36.581-71.074,49.606-80.457c-20.019-25.432-48.392-37.625-81.035-40.061c-39.214-2.906-72.709,22.904-94.582,22.904  c-18.192,0-40.912-14.928-65.932-20.016c-4.059-0.825-6.68-4.785-5.855-8.845c0.825-4.059,4.782-6.683,8.845-5.855  c25.567,5.198,49.213,19.715,62.942,19.715c16.774,0,53.091-26.017,95.694-22.862c37.009,2.76,69.214,17.065,91.835,45.9  c5.307,6.765,3.659,16.401-3.085,21.251c-11.4,8.2-38.467,31.463-43.558,70.277C400.519,260.772,397.296,263.522,393.588,263.522z" fill="#0feb63" data-original="#000000" style="" class=""/>
<g xmlns="http://www.w3.org/2000/svg">
</g>
<g xmlns="http://www.w3.org/2000/svg">
</g>
<g xmlns="http://www.w3.org/2000/svg">
</g>
<g xmlns="http://www.w3.org/2000/svg">
</g>
<g xmlns="http://www.w3.org/2000/svg">
</g>
<g xmlns="http://www.w3.org/2000/svg">
</g>
<g xmlns="http://www.w3.org/2000/svg">
</g>
<g xmlns="http://www.w3.org/2000/svg">
</g>
<g xmlns="http://www.w3.org/2000/svg">
</g>
<g xmlns="http://www.w3.org/2000/svg">
</g>
<g xmlns="http://www.w3.org/2000/svg">
</g>
<g xmlns="http://www.w3.org/2000/svg">
</g>
<g xmlns="http://www.w3.org/2000/svg">
</g>
<g xmlns="http://www.w3.org/2000/svg">
</g>
<g xmlns="http://www.w3.org/2000/svg">
</g>
</g></svg>
